HIERARCHY
ROOT Hips
{
	OFFSET 52.501801 -24.354313 86.469391
	CHANNELS 6 Xposition Yposition Zposition Xrotation Yrotation Zrotation
	JOINT spine
	{
		OFFSET 0.000000 -0.393702 6.846367
		CHANNELS 3 Xrotation Yrotation Zrotation
		JOINT spine1
		{
			OFFSET 0.000000 -0.000002 9.496208
			CHANNELS 3 Xrotation Yrotation Zrotation
			JOINT spine2
			{
				OFFSET 0.000000 -0.000002 9.099091
				CHANNELS 3 Xrotation Yrotation Zrotation
				JOINT Neck
				{
					OFFSET 0.000000 -1.113783 23.361206
					CHANNELS 3 Xrotation Yrotation Zrotation
					JOINT Head
					{
						OFFSET 0.000000 0.000000 7.058014
						CHANNELS 3 Xrotation Yrotation Zrotation
						End Site
						{
							OFFSET 0.000000 5.634186 17.084396
						}
					}
				}
				JOINT RightShoulder
				{
					OFFSET -3.831360 0.533491 9.826309
					CHANNELS 3 Xrotation Yrotation Zrotation
					JOINT RightArm
					{
						OFFSET 0.000000 -0.000002 12.888107
						CHANNELS 3 Xrotation Yrotation Zrotation
						JOINT RightArmRoll
						{
							OFFSET 0.000000 -0.000002 6.506165
							CHANNELS 3 Xrotation Yrotation Zrotation
							JOINT RightForeArm
							{
								OFFSET 0.000000 -0.000004 18.950104
								CHANNELS 3 Xrotation Yrotation Zrotation
								JOINT RightForeArmRoll
								{
									OFFSET 0.000000 0.000000 7.300934
									CHANNELS 3 Xrotation Yrotation Zrotation
									JOINT RightHand
									{
										OFFSET 0.000000 -0.000004 14.651398
										CHANNELS 3 Xrotation Yrotation Zrotation
										End Site
										{
											OFFSET 0.000000 0.000000 0.100006
										}
									}
								}
							}
						}
					}
				}
				JOINT LeftShoulder
				{
					OFFSET 3.831360 0.533491 9.826309
					CHANNELS 3 Xrotation Yrotation Zrotation
					JOINT LeftArm
					{
						OFFSET 0.000000 -0.000002 12.888107
						CHANNELS 3 Xrotation Yrotation Zrotation
						JOINT LeftArmRoll
						{
							OFFSET 0.000000 -0.000002 6.506165
							CHANNELS 3 Xrotation Yrotation Zrotation
							JOINT LeftForeArm
							{
								OFFSET 0.000000 -0.000004 18.950104
								CHANNELS 3 Xrotation Yrotation Zrotation
								JOINT LeftForeArmRoll
								{
									OFFSET 0.000000 0.000000 7.300934
									CHANNELS 3 Xrotation Yrotation Zrotation
									JOINT LeftHand
									{
										OFFSET 0.000000 -0.000004 14.651398
										CHANNELS 3 Xrotation Yrotation Zrotation
										End Site
										{
											OFFSET 0.000000 0.000000 0.100006
										}
									}
								}
							}
						}
					}
				}
			}
		}
	}
	JOINT RightUpLeg
	{
		OFFSET -6.068371 0.933477 -1.112778
		CHANNELS 3 Xrotation Yrotation Zrotation
		JOINT RightUpLegRoll
		{
			OFFSET 0.000000 -0.000004 17.179604
			CHANNELS 3 Xrotation Yrotation Zrotation
			JOINT RightLeg
			{
				OFFSET 0.000000 0.000004 -21.274300
				CHANNELS 3 Xrotation Yrotation Zrotation
				JOINT RightLegRoll
				{
					OFFSET 0.000000 -0.000004 21.343903
					CHANNELS 3 Xrotation Yrotation Zrotation
					JOINT RightFoot
					{
						OFFSET 0.000000 -0.000002 17.765198
						CHANNELS 3 Xrotation Yrotation Zrotation
						JOINT RightToeBase
						{
							OFFSET 0.000000 -0.000004 14.850815
							CHANNELS 3 Xrotation Yrotation Zrotation
							End Site
							{
								OFFSET 0.006294 0.829004 7.192139
							}
						}
					}
				}
			}
		}
	}
	JOINT LeftUpLeg
	{
		OFFSET 6.068371 0.933477 -1.112778
		CHANNELS 3 Xrotation Yrotation Zrotation
		JOINT LeftUpLegRoll
		{
			OFFSET 0.000000 -0.000004 17.179703
			CHANNELS 3 Xrotation Yrotation Zrotation
			JOINT LeftLeg
			{
				OFFSET 0.000000 -0.000004 21.274200
				CHANNELS 3 Xrotation Yrotation Zrotation
				JOINT LeftLegRoll
				{
					OFFSET 0.000000 -0.000002 21.541214
					CHANNELS 3 Xrotation Yrotation Zrotation
					JOINT LeftFoot
					{
						OFFSET 0.000000 -0.000004 17.567902
						CHANNELS 3 Xrotation Yrotation Zrotation
						JOINT LeftToeBase
						{
							OFFSET 0.000000 -0.000002 14.850800
							CHANNELS 3 Xrotation Yrotation Zrotation
							End Site
							{
								OFFSET -0.028210 0.829002 7.192139
							}
						}
					}
				}
			}
		}
	}
}
MOTION
Frames: 11
Frame Time: 0.041667
58.632004 -19.373611 86.026299 5.426823 2.463680 0.708436 -2.848099 -0.662249 -0.736229 -1.702084 -1.294718 -1.498820 -0.057063 -1.312579 -1.483207 20.211889 20.436594 -6.005408 16.208141 -20.900913 -1.377768 -10.084134 -6.750500 -7.171179 -120.487529 -186.158541 -56.548912 -0.000001 -0.000002 -0.000003 2.777113 10.674439 1.781349 0.000000 0.000012 -3.000031 -5.000227 -7.998718 0.000168 -14.137449 31.554303 15.664981 -116.272551 202.438501 79.080135 -0.000008 0.000008 0.000015 13.823537 -2.161979 -0.970421 0.000002 -0.000039 3.000001 -5.000188 7.998712 -0.000170 -21.409499 -177.736576 0.728041 -179.999991 -0.000005 -0.953995 153.600108 -5.882745 -1.725566 0.000001 -0.000005 0.471668 73.234750 7.066571 1.287205 27.075423 -7.350340 0.169086 -21.722105 173.603410 -1.767517 -0.000003 -0.000005 -0.747548 -31.247890 3.307556 1.463619 -0.000004 -0.000003 -0.511236 78.924823 -6.673587 -1.965538 25.456839 7.350475 0.000015 
58.668701 -19.314407 85.817497 5.473153 2.371211 0.622776 -2.855448 -0.643759 -0.718601 -1.716324 -1.258375 -1.462894 -0.071299 -1.275799 -1.447718 20.381331 20.286579 -6.033396 16.017441 -20.707559 -1.457331 -10.064839 -6.890225 -7.158635 -120.529644 -187.103716 -56.691028 0.000001 0.000002 -0.000003 2.745287 10.677118 1.776410 -0.000000 0.000010 -3.000028 -5.000227 -7.998724 0.000169 -14.024182 31.166420 15.488188 -116.131835 202.829421 78.780433 -0.000008 0.000007 0.000012 13.748998 -2.360693 -0.980226 0.000001 -0.000034 2.999997 -5.000191 7.998713 -0.000169 -21.987113 -177.561969 0.833842 -179.999991 -0.000005 -0.947001 152.483399 -5.976309 -1.809588 0.000002 -0.000005 0.483286 74.090996 7.068074 1.197660 26.784225 -7.350487 0.138669 -22.062315 173.622261 -1.869654 -0.000005 -0.000005 -0.741122 -32.031350 3.479413 1.536647 -0.000004 -0.000003 -0.508028 79.467871 -6.672725 -1.918214 25.456899 7.349788 0.000007 
58.673901 -19.302612 85.637909 5.520401 2.278892 0.538397 -2.861931 -0.625753 -0.701742 -1.728854 -1.222973 -1.428511 -0.083834 -1.239998 -1.413755 20.535908 20.143958 -6.057209 15.836702 -20.518249 -1.532165 -10.046652 -7.024822 -7.147014 -120.566445 -188.041719 -56.826730 0.000001 0.000002 -0.000001 2.727271 10.679174 1.770235 -0.000000 0.000011 -3.000027 -5.000227 -7.998722 0.000171 -13.918890 30.785814 15.322824 -116.004151 203.219165 78.491516 -0.000009 0.000006 0.000013 13.681640 -2.552683 -0.990227 0.000001 -0.000032 3.000000 -5.000191 7.998711 -0.000165 -22.563424 -177.387239 0.933729 -179.999991 -0.000005 -0.938996 151.373343 -6.065897 -1.895054 0.000001 -0.000005 0.493956 74.934402 7.068121 1.110319 26.500924 -7.350519 0.109072 -22.408701 173.637875 -1.972724 -0.000004 -0.000005 -0.733996 -32.821432 3.652545 1.612334 -0.000001 -0.000003 -0.504042 80.008412 -6.673420 -1.865911 25.456863 7.349148 0.000006 
58.703098 -19.241512 85.412292 5.568482 2.187786 0.455931 -2.867319 -0.608632 -0.686164 -1.739235 -1.189322 -1.396701 -0.094207 -1.205969 -1.382353 20.672169 20.014485 -6.075787 15.670745 -20.336876 -1.599953 -10.029912 -7.146753 -7.135875 -120.596948 -188.968358 -56.948649 -0.000001 0.000000 -0.000002 2.726365 10.681874 1.762779 0.000000 0.000010 -3.000028 -5.000229 -7.998724 0.000168 -13.824054 30.417086 15.172814 -115.891440 203.609073 78.221970 -0.000010 0.000007 0.000015 13.620907 -2.734224 -1.000224 0.000000 -0.000036 3.000003 -5.000190 7.998710 -0.000166 -23.133721 -177.213247 1.026115 -179.999991 -0.000004 -0.931004 150.279817 -6.152007 -1.982804 0.000001 -0.000005 0.503479 75.753000 7.066834 1.026569 26.232989 -7.350458 0.081092 -22.758942 173.648353 -2.075275 -0.000004 -0.000004 -0.726077 -33.609425 3.825838 1.689416 -0.000004 -0.000003 -0.499112 80.539706 -6.675928 -1.808023 25.456825 7.348534 0.000021 
58.718700 -19.218307 85.227089 5.617332 2.098980 0.376002 -2.871382 -0.592808 -0.672380 -1.746977 -1.158212 -1.368513 -0.101957 -1.174518 -1.354540 20.786748 19.903774 -6.088152 15.524480 -20.167561 -1.658387 -10.014973 -7.248492 -7.124775 -120.620185 -189.879450 -57.048103 -0.000003 -0.000002 -0.000005 2.745912 10.686797 1.754023 -0.000003 0.000011 -3.000030 -5.000227 -7.998724 0.000166 -13.742519 30.064710 15.042148 -115.795817 204.000538 77.980256 -0.000008 0.000005 0.000013 13.566428 -2.901541 -1.010018 0.000001 -0.000035 2.999999 -5.000190 7.998713 -0.000163 -23.693137 -177.043585 1.110692 -179.999991 -0.000005 -0.922999 149.212845 -6.230957 -2.067041 0.000001 -0.000005 0.511656 76.535036 7.064339 0.947473 25.987886 -7.350303 0.055489 -23.110522 173.651768 -2.175808 -0.000005 -0.000004 -0.717274 -34.386379 3.998305 1.766460 -0.000004 -0.000004 -0.493076 81.055030 -6.680500 -1.743930 25.456890 7.347988 0.000007 
58.749500 -19.189711 85.030701 5.666873 2.013549 0.299234 -2.873878 -0.578686 -0.660907 -1.751651 -1.130421 -1.344998 -0.106625 -1.146448 -1.331364 20.876214 19.817541 -6.093361 15.402350 -20.014496 -1.705369 -10.002183 -7.322474 -7.113268 -120.636085 -190.770776 -57.118734 -0.000001 -0.000005 -0.000004 2.789230 10.694911 1.743942 -0.000002 0.000010 -3.000028 -5.000230 -7.998729 0.000169 -13.676728 29.733197 14.934584 -115.718595 204.394845 77.774565 -0.000012 0.000008 0.000012 13.517523 -3.050910 -1.019442 0.000001 -0.000032 3.000001 -5.000183 7.998710 -0.000170 -24.236686 -176.880835 1.186811 -179.999991 -0.000004 -0.913997 148.182115 -6.303671 -2.150267 0.000001 -0.000005 0.518285 77.268776 7.060829 0.873996 25.772901 -7.350107 0.033038 -23.461138 173.648107 -2.273522 -0.000004 -0.000005 -0.707491 -35.143751 4.168996 1.841864 -0.000003 -0.000003 -0.485772 81.547725 -6.687299 -1.673310 25.456860 7.347509 0.000007 
58.762199 -19.144009 84.827499 5.717025 1.932566 0.226244 -2.874579 -0.566674 -0.652257 -1.752767 -1.106752 -1.327196 -0.107749 -1.122568 -1.313851 20.937185 19.761395 -6.090439 15.309200 -19.881747 -1.738735 -9.991894 -7.361169 -7.100945 -120.644650 -191.638074 -57.154627 -0.000000 0.000001 -0.000005 2.859633 10.707761 1.732475 -0.000002 0.000013 -3.000040 -5.000229 -7.998722 0.000167 -13.629074 29.427071 14.853831 -115.661235 204.793209 77.613864 -0.000010 0.000005 0.000010 13.473721 -3.178584 -1.028273 0.000001 -0.000033 3.000001 -5.000189 7.998713 -0.000169 -24.759559 -176.727456 1.253921 -179.999991 -0.000005 -0.904995 147.197694 -6.368722 -2.229313 0.000001 -0.000005 0.523168 77.942335 7.056513 0.807293 25.595499 -7.349897 0.014518 -23.808202 173.637274 -2.367619 -0.000003 -0.000005 -0.696635 -35.872659 4.337084 1.913839 -0.000004 -0.000003 -0.477036 82.011031 -6.696578 -1.595452 25.456931 7.347105 -0.000006 
58.785301 -19.098106 84.626999 5.767699 1.857117 0.157646 -2.873233 -0.557178 -0.646945 -1.749886 -1.088002 -1.316157 -0.104867 -1.103688 -1.303040 20.966314 19.741041 -6.078437 15.249625 -19.773304 -1.756452 -9.984471 -7.357041 -7.087353 -120.646522 -192.477108 -57.147052 -0.000001 -0.000002 -0.000004 2.960457 10.726601 1.719557 0.000000 0.000007 -3.000037 -5.000230 -7.998722 0.000169 -13.602169 29.150841 14.803673 -115.624666 205.196983 77.507914 -0.000008 0.000010 0.000013 13.434535 -3.280817 -1.036366 0.000003 -0.000034 2.999999 -5.000186 7.998714 -0.000166 -25.256936 -176.585880 1.311526 -179.999991 -0.000004 -0.894995 146.269635 -6.424023 -2.302297 0.000000 -0.000005 0.526105 78.543986 7.051632 0.748212 25.463060 -7.349707 0.000688 -24.149355 173.618286 -2.456853 -0.000002 -0.000004 -0.684616 -36.564291 4.501829 1.980469 -0.000003 -0.000004 -0.466706 82.438362 -6.708547 -1.509630 25.456919 7.346807 -0.000002 
58.802505 -19.070908 84.431496 5.819762 1.783983 0.092237 -2.869660 -0.549108 -0.644597 -1.742595 -1.071994 -1.311082 -0.097579 -1.087629 -1.298152 20.957215 19.745759 -6.056562 15.225759 -19.679722 -1.761014 -9.981052 -7.320589 -7.076184 -120.646850 -193.297236 -57.114650 0.000000 -0.000001 -0.000003 3.098130 10.741547 1.702163 -0.000002 0.000010 -3.000039 -5.000229 -7.998728 0.000168 -13.594452 28.891707 14.781733 -115.610036 205.605018 77.447549 -0.000010 0.000007 0.000010 13.394109 -3.364033 -1.044334 0.000001 -0.000034 2.999997 -5.000185 7.998714 -0.000166 -25.738542 -176.450752 1.361370 -179.999991 -0.000004 -0.884996 145.377913 -6.472949 -2.368599 0.000001 -0.000005 0.526506 79.089923 7.046334 0.695347 25.369406 -7.349560 -0.009081 -24.493666 173.589831 -2.542683 -0.000005 -0.000005 -0.670726 -37.239674 4.672073 2.043340 -0.000005 -0.000004 -0.453787 82.841828 -6.724628 -1.409393 25.456904 7.346609 0.000003 
58.855900 -18.980808 84.228706 5.874072 1.708935 0.028180 -2.863985 -0.540980 -0.644237 -1.731124 -1.055818 -1.309968 -0.086104 -1.071439 -1.297230 20.908688 19.759071 -6.025655 15.233323 -19.587512 -1.757691 -9.982216 -7.270637 -7.071259 -120.650087 -194.112036 -57.084874 -0.000002 -0.000003 -0.000004 3.274181 10.742347 1.677693 -0.000001 0.000012 -3.000035 -5.000228 -7.998724 0.000169 -13.601430 28.632882 14.780992 -115.616033 206.014515 77.415297 -0.000013 0.000009 0.000013 13.347677 -3.438625 -1.052967 0.000001 -0.000037 2.999999 -5.000186 7.998715 -0.000169 -26.219047 -176.313438 1.405380 -179.999991 -0.000004 -0.873003 144.492160 -6.520827 -2.431453 0.000001 -0.000005 0.524098 79.609393 7.040693 0.645572 25.299693 -7.349457 -0.016365 -24.852055 173.553495 -2.628481 -0.000003 -0.000004 -0.654454 -37.928539 4.856806 2.106586 -0.000005 -0.000004 -0.437599 83.240752 -6.745318 -1.289598 25.457001 7.346469 -0.000015 
58.869499 -18.956308 84.031097 5.930307 1.632601 -0.034431 -2.856453 -0.532981 -0.645669 -1.715953 -1.039853 -1.312420 -0.070936 -1.055499 -1.299877 20.825605 19.781404 -5.986687 15.268237 -19.497931 -1.747265 -9.987226 -7.207896 -7.071300 -120.655647 -194.920307 -57.052273 -0.000002 0.000000 -0.000003 3.483545 10.732097 1.647598 0.000000 0.000011 -3.000041 -5.000233 -7.998724 0.000168 -13.621462 28.376646 14.799114 -115.639091 206.424709 77.410885 -0.000010 0.000008 0.000012 13.298224 -3.504434 -1.061987 0.000001 -0.000035 3.000001 -5.000189 7.998715 -0.000166 -26.697847 -176.174867 1.443516 -179.999991 -0.000004 -0.859998 143.614426 -6.567755 -2.491640 -0.000000 -0.000005 0.519273 80.103755 7.034649 0.598898 25.251513 -7.349394 -0.021397 -25.222500 173.510178 -2.714036 -0.000003 -0.000005 -0.636167 -38.628213 5.053073 2.171051 -0.000002 -0.000003 -0.418684 83.634553 -6.769455 -1.153061 25.457000 7.346394 -0.000009 
